# xmcd
#
# Track frame offsets:
#	150
#	18902
#	34637
#
# Disc length: 690 seconds
#
# Revision: 0
# Processed by: cddbd v1.4PL0 Copyright (c) Steve Scherf et al.
# Submitted via: dBpowerAMP V4.0
#
DISCID=1602b003
DTITLE=Jon Spencer Blues Explosion - Magical Colors
DYEAR=1998
DGENRE=Blues
TTITLE0=Magical Colors
TTITLE1=Bacon
TTITLE2=Get Down Lover
EXTD=
EXTT0=
EXTT1=
EXTT2=
PLAYORDER=
